PathFileType	4	(X/Y/Z)	/Users/itak/Documents/Research/Walk-IL/dataset/trc/00155_00007.trc
DataRate	CameraRate	NumFrames	NumMarkers	Units	OrigDataRate	OrigDataStartFrame	OrigNumFrames
100.000000	100.000000	4	53	mm	100.000000	211	565
Frame#	Time	RPSI			LPSI			L3			STRN			T10			C7			CLAV			RBAK			LBAK			LSHO			LUPA			LAEL			LAOL			LWTS			LWPS			LFRA			LIFD			LHPS			LHTS			RSHO			RUPA			RAEL			RAOL			RWTS			RWPS			RFRA			RIFD			RHTS			RHPS			RBHD			LFHD			RFHD			LBHD			LHIP			RHIP			RASI			LASI			LKNE			LTHI			LANK			LTIP			LTOE			LMT1			LMT5			LHEE			RKNE			RTHI			RANK			RTIP			RTOE			RMT1			RMT5			RHEE			
		X1	Y1	Z1	X2	Y2	Z2	X3	Y3	Z3	X4	Y4	Z4	X5	Y5	Z5	X6	Y6	Z6	X7	Y7	Z7	X8	Y8	Z8	X9	Y9	Z9	X10	Y10	Z10	X11	Y11	Z11	X12	Y12	Z12	X13	Y13	Z13	X14	Y14	Z14	X15	Y15	Z15	X16	Y16	Z16	X17	Y17	Z17	X18	Y18	Z18	X19	Y19	Z19	X20	Y20	Z20	X21	Y21	Z21	X22	Y22	Z22	X23	Y23	Z23	X24	Y24	Z24	X25	Y25	Z25	X26	Y26	Z26	X27	Y27	Z27	X28	Y28	Z28	X29	Y29	Z29	X30	Y30	Z30	X31	Y31	Z31	X32	Y32	Z32	X33	Y33	Z33	X34	Y34	Z34	X35	Y35	Z35	X36	Y36	Z36	X37	Y37	Z37	X38	Y38	Z38	X39	Y39	Z39	X40	Y40	Z40	X41	Y41	Z41	X42	Y42	Z42	X43	Y43	Z43	X44	Y44	Z44	X45	Y45	Z45	X46	Y46	Z46	X47	Y47	Z47	X48	Y48	Z48	X49	Y49	Z49	X50	Y50	Z50	X51	Y51	Z51	X52	Y52	Z52	X53	Y53	Z53	

212	2.11	-1019.533935546875	1097.201782226562	-538.3744506835938	-1020.386352539062	1099.157592773438	-674.2677001953125	-1024.0244140625	1137.725708007812	-612.0374755859375	-782.3065795898438	1308.882690429688	-614.208251953125	-1039.786743164062	1293.351196289062	-621.7669067382812	-962.418701171875	1578.24853515625	-637.5321044921875	-798.8352661132812	1447.266845703125	-617.6316528320312	-1046.265502929688	1402.325073242188	-552.7992553710938	-964.2137451171875	1557.794555664062	-739.7706298828125	-877.1561279296875	1529.263916015625	-802.8302612304688	-910.0238647460938	1399.296142578125	-872.6461181640625	-928.6174926757812	1178.960205078125	-887.3032836914062	-999.0062866210938	1180.1103515625	-835.9804077148438	-887.3584594726562	907.5350952148438	-831.02392578125	-967.5220336914062	898.62939453125	-865.9746704101562	-933.9065551757812	1061.772705078125	-887.85498046875	-916.8255615234375	716.5540771484375	-807.054443359375	-955.224365234375	819.1676025390625	-862.0123901367188	-889.7052612304688	817.65185546875	-838.600341796875	-922.4371337890625	1551.817016601562	-451.866943359375	-953.6170654296875	1480.895141601562	-390.332763671875	-1012.328308105469	1192.218505859375	-377.7198181152344	-1006.636474609375	1192.150146484375	-474.6519775390625	-914.6412963867188	928.0354614257812	-377.2194519042969	-993.5672607421875	925.587890625	-355.0628662109375	-1003.983947753906	1117.014770507812	-360.7070617675781	-920.6796875	730.4234619140625	-386.5133361816406	-906.3534545898438	817.047119140625	-368.6392822265625	-976.1194458007812	821.0682373046875	-346.9684753417969	-914.3353271484375	1737.4931640625	-558.3125610351562	-725.65869140625	1790.055053710938	-656.728271484375	-748.9046630859375	1791.124877929688	-529.0545043945312	-898.4721069335938	1741.211059570312	-692.707275390625	-944.5286865234375	999.4634399414062	-784.1588134765625	-889.7133178710938	999.2683715820312	-422.4214477539062	-810.0090942382812	1062.700317382812	-483.5861511230469	-825.98193359375	1051.497924804688	-749.2677001953125	-1019.820495605469	502.4679565429688	-741.6997680664062	-1005.11083984375	651.05029296875	-769.030517578125	-1336.584716796875	78.09268188476562	-710.5565795898438	-1218.992797851562	313.359619140625	-754.9878540039062	-1118.278076171875	32.12813186645508	-646.6060791015625	-1193.315795898438	49.84195327758789	-619.5663452148438	-1223.275512695312	32.38383102416992	-731.5979614257812	-1399.326416015625	115.7596664428711	-651.2791137695312	-732.7478637695312	541.8588256835938	-495.1343078613281	-811.0856323242188	801.8900756835938	-437.6112670898438	-720.1035766601562	24.09709739685059	-549.359619140625	-725.9628295898438	404.082763671875	-493.1533813476562	-494.6370544433594	71.06754302978516	-573.3208618164062	-542.268798828125	48.64496231079102	-621.2957153320312	-594.0407104492188	42.57522964477539	-514.26611328125	-770.7066040039062	25.72172927856445	-604.0908813476562	
213	2.12	-1009.658264160156	1099.010131835938	-536.7398071289062	-1010.52099609375	1100.897338867188	-672.6145629882812	-1014.216552734375	1139.406616210938	-610.3519287109375	-772.9811401367188	1311.222900390625	-612.3397216796875	-1030.473754882812	1294.948486328125	-620.140380859375	-954.101318359375	1579.988403320312	-635.9655151367188	-790.0297241210938	1449.53662109375	-615.6199951171875	-1037.3203125	1403.685668945312	-551.4945068359375	-955.4304809570312	1559.562622070312	-738.226806640625	-867.9611206054688	1531.517456054688	-800.9290161132812	-900.2753295898438	1401.580810546875	-871.1416015625	-918.625732421875	1181.283447265625	-885.8563842773438	-989.116943359375	1182.3154296875	-834.7200317382812	-877.0726928710938	909.8611450195312	-829.551025390625	-957.1661376953125	900.8339233398438	-864.7011108398438	-923.7535400390625	1064.065551757812	-886.4970703125	-906.5423583984375	718.8242797851562	-805.4077758789062	-944.8390502929688	821.3632202148438	-860.5972900390625	-879.423095703125	819.8903198242188	-837.00732421875	-914.53271484375	1553.7353515625	-450.2315368652344	-945.62060546875	1482.682373046875	-388.8006896972656	-1003.722412109375	1193.847534179688	-376.8402709960938	-997.374755859375	1193.910766601562	-473.7564697265625	-904.5693359375	930.184814453125	-375.9917602539062	-983.5860595703125	927.244873046875	-354.3204345703125	-995.08935546875	1118.629516601562	-359.8569946289062	-909.3727416992188	732.56005859375	-385.5521850585938	-895.732666015625	819.2223510742188	-367.5032348632812	-965.5942993164062	822.81005859375	-346.2717590332031	-906.2803344726562	1739.787353515625	-556.6204833984375	-717.1549682617188	1792.010498046875	-654.3018798828125	-740.7863159179688	1792.9609375	-526.7003173828125	-889.9122924804688	1743.640625	-690.94287109375	-934.6073608398438	1001.419067382812	-782.6795654296875	-879.773193359375	1000.955261230469	-420.9737243652344	-800.1726684570312	1064.738403320312	-482.0647583007812	-816.0980224609375	1053.527099609375	-747.6246337890625	-1007.049499511719	503.1888732910156	-742.8915405273438	-993.257568359375	652.2677612304688	-768.8336791992188	-1333.300659179688	83.42646026611328	-712.1814575195312	-1210.289916992188	317.5526428222656	-756.0217895507812	-1118.164184570312	31.9000301361084	-646.8241577148438	-1191.841918945312	51.16055679321289	-620.4839477539062	-1222.311157226562	32.60201644897461	-731.6923217773438	-1394.220825195312	124.5741958618164	-653.3177490234375	-726.048828125	542.2196655273438	-495.0139465332031	-802.4346313476562	802.91845703125	-436.91015625	-719.6127319335938	24.10544013977051	-549.1587524414062	-720.236328125	404.3110961914062	-492.9808349609375	-493.103271484375	68.55144500732422	-574.5820922851562	-541.7247924804688	46.9759635925293	-622.2219848632812	-592.901123046875	42.16040420532227	-514.8699951171875	-770.3855590820312	26.13275146484375	-603.7192993164062	
214	2.13	-999.734375	1100.830932617188	-535.0003662109375	-1000.669860839844	1102.645385742188	-670.8532104492188	-1004.373779296875	1141.123291015625	-608.5498657226562	-763.630859375	1313.626220703125	-610.447265625	-1021.142578125	1296.577880859375	-618.3472290039062	-945.8507080078125	1581.7734375	-634.3394165039062	-781.2586669921875	1451.864379882812	-613.5927734375	-1028.364135742188	1405.09033203125	-550.0458984375	-946.7559814453125	1561.355834960938	-736.6141967773438	-858.890625	1533.791381835938	-798.9727783203125	-890.5957641601562	1403.883666992188	-869.5716552734375	-908.5516357421875	1183.619995117188	-884.4183959960938	-979.1834106445312	1184.48095703125	-833.5247802734375	-866.4910278320312	912.2422485351562	-828.0411987304688	-946.4652099609375	903.0100708007812	-863.4692993164062	-913.4139404296875	1066.362060546875	-885.1537475585938	-895.7229614257812	721.1190185546875	-803.6703491210938	-934.0355224609375	823.5432739257812	-859.1864624023438	-868.7711181640625	822.16650390625	-835.3602905273438	-906.5933227539062	1555.726684570312	-448.5498352050781	-937.5861206054688	1484.57177734375	-387.197021484375	-995.0740966796875	1195.557006835938	-375.8538513183594	-988.103759765625	1195.761474609375	-472.7428283691406	-894.2890625	932.492431640625	-374.6831970214844	-973.3986206054688	928.9862060546875	-353.4861145019531	-986.1216430664062	1120.322509765625	-358.9028625488281	-897.690673828125	734.859375	-384.5154724121094	-884.8165283203125	821.5711059570312	-366.2830505371094	-954.7431030273438	824.6561279296875	-345.4898376464844	-898.32958984375	1742.110717773438	-554.8968505859375	-708.7935791015625	1794.077880859375	-651.861328125	-732.8056640625	1794.877807617188	-524.3274536132812	-881.473876953125	1746.1220703125	-689.157958984375	-924.6723022460938	1003.432861328125	-781.1282958984375	-869.7539672851562	1002.619262695312	-419.458251953125	-790.2367553710938	1066.785278320312	-480.4708862304688	-806.217041015625	1055.665161132812	-745.901123046875	-993.36572265625	503.7570190429688	-744.3207397460938	-980.8096923828125	653.4182739257812	-768.7984008789062	-1329.4248046875	89.14942169189453	-714.0549926757812	-1200.611206054688	321.8222351074219	-757.3005981445312	-1118.067504882812	31.60676956176758	-647.0374755859375	-1190.15869140625	52.53189849853516	-621.4913940429688	-1221.220581054688	32.90286636352539	-731.7945556640625	-1388.26318359375	133.9095764160156	-655.7305297851562	-719.75732421875	542.451416015625	-495.0470581054688	-793.9324340820312	803.774169921875	-436.1934204101562	-719.0731811523438	24.19020080566406	-549.076416015625	-714.7835693359375	404.4520568847656	-492.9754333496094	-491.6591491699219	66.32113647460938	-576.2174072265625	-541.3075561523438	45.46626281738281	-623.462646484375	-591.7280883789062	42.05542755126953	-515.7203979492188	-770.1055297851562	26.46973991394043	-603.3339233398438	
215	2.14	-989.8074340820312	1102.637573242188	-533.1994018554688	-990.8653564453125	1104.3603515625	-669.0272827148438	-994.5358276367188	1142.835815429688	-606.674072265625	-754.2879028320312	1316.042602539062	-608.54541015625	-1011.817626953125	1298.1923828125	-616.4346313476562	-937.678466796875	1583.5595703125	-632.658447265625	-772.5465698242188	1454.19970703125	-611.5713500976562	-1019.41064453125	1406.506103515625	-548.4517211914062	-938.2243041992188	1563.134521484375	-734.9337768554688	-850.0001831054688	1536.03369140625	-796.9805908203125	-881.0460815429688	1406.148193359375	-867.935546875	-898.4212036132812	1185.917236328125	-882.9818725585938	-969.232421875	1186.541748046875	-832.380126953125	-855.6170043945312	914.6312866210938	-826.5014038085938	-935.4192504882812	905.1088256835938	-862.2841186523438	-902.9027099609375	1068.611694335938	-883.8178100585938	-884.3756103515625	723.3885498046875	-801.8966674804688	-922.8058471679688	825.6607055664062	-857.803955078125	-857.7377319335938	824.4387817382812	-833.6874389648438	-898.607666015625	1557.74169921875	-446.82666015625	-929.4921264648438	1486.50927734375	-385.5205688476562	-986.35400390625	1197.299072265625	-374.7319641113281	-978.8382568359375	1197.653442382812	-471.5881652832031	-883.8082275390625	934.9024658203125	-373.2983093261719	-963.0049438476562	930.76708984375	-352.5343627929688	-977.0552368164062	1122.048828125	-357.8188781738281	-885.6741333007812	737.2700805664062	-383.4170837402344	-873.613525390625	824.0408935546875	-364.9898681640625	-943.5789794921875	826.5593872070312	-344.6078491210938	-890.4921264648438	1744.404052734375	-553.1422119140625	-700.5931396484375	1796.217041015625	-649.4132080078125	-724.9833984375	1796.83642578125	-521.9473876953125	-873.1782836914062	1748.595458984375	-687.3540649414062	-914.7406616210938	1005.437377929688	-779.5179443359375	-859.7322387695312	1004.260559082031	-417.8854064941406	-780.272216796875	1068.80810546875	-478.8088684082031	-796.3726806640625	1057.868774414062	-744.0921630859375	-978.791748046875	504.1453552246094	-745.9111328125	-967.7758178710938	654.457763671875	-768.9207763671875	-1324.880004882812	95.29219818115234	-716.2191772460938	-1189.9140625	326.1197204589844	-758.8303833007812	-1117.968139648438	31.22186851501465	-647.2387084960938	-1188.231689453125	53.98324584960938	-622.601318359375	-1219.9638671875	33.36929702758789	-731.92919921875	-1381.385375976562	143.7118835449219	-658.5638427734375	-713.8612060546875	542.5748291015625	-495.1722717285156	-785.5964965820312	804.481201171875	-435.4388122558594	-718.5145263671875	24.33992767333984	-549.1036987304688	-709.6541748046875	404.5052185058594	-493.0775756835938	-490.3345031738281	64.34891510009766	-578.0747680664062	-541.0005493164062	44.09405136108398	-624.901611328125	-590.5728759765625	42.16606903076172	-516.733642578125	-769.85498046875	26.74981689453125	-602.96044921875	
